<svg version="1.1" id="Isolation_Mode" xmlns="http://www.w3.org/2000/svg" xmlns:xlink="http://www.w3.org/1999/xlink" x="0px"
	 y="0px" viewBox="0 0 305.9 50.8" style="enable-background:new 0 0 305.9 50.8;" xml:space="preserve">
<style type="text/css">
	.st0{fill:#F8F8F8;}
	.st1{fill:#F26522;}
	.st2{fill-rule:evenodd;clip-rule:evenodd;fill:#F8F8F8;}
</style>
<g>
	<path class="st0" d="M35.4,19.5L35.4,19.5c1-0.4,2.3-1.2,2.3-3.3c0-2.4-2-3.5-4.7-3.5h-4.7v5.8h-2.8c-3.7,0-4.5,2.6-4.5,4
		c0,2,1.2,2.9,3.3,4c1.3,0.7,2.9,1.1,2.9,2.5c0,0.8-0.7,1.7-2.3,1.7H22c0.4-0.7,0.6-1.6,0.6-2.3c0-0.9-0.3-4.6-5.5-4.6h-4.2v14.3
		h2.9v-6.2L17,33h7.8c3.7,0,5.4-1.9,5.4-4.1c0-0.8-0.1-1.4-0.4-2h2.9c4.5,0,5.6-2.3,5.6-4C38.3,21.1,37.2,19.8,35.4,19.5z
		 M17.2,30.7h-1.3V26h1.3c1.7,0,2.4,1,2.4,2.3C19.6,29.4,18.9,30.7,17.2,30.7z M28.3,21.8v3.5c-0.7-0.4-1.5-0.7-2.3-1.1
		C25,23.8,24,23.3,24,22.2c0-0.6,0.4-1.4,2.1-1.4h1.2h0.9h1.1L28.3,21.8z M31.1,14.9h1.3c2.2,0,2.3,1.4,2.3,1.8
		c0,0.6-0.3,1.8-2.2,1.8h-1.4V14.9z M32.8,24.7h-1.6v-4h1.6c2,0,2.5,1,2.5,2C35.3,23.7,34.6,24.7,32.8,24.7z"/>
	<path class="st0" d="M50.8,12.4C50.8,5.5,45.3,0,38.4,0H21C15.3,0,10.5,3.8,9.1,9h21.1c8.1,0,11.6,3.8,11.6,12.6v20
		c5.2-1.5,9-6.3,9-11.9V12.4z"/>
	<path class="st1" d="M0,38.4c0,6.8,5.5,12.4,12.4,12.4h17.5c5.6,0,10.4-3.8,11.9-9H20.6C12.5,41.7,9,37.9,9,29.1V9
		c-5.2,1.5-9,6.3-9,11.9V38.4z"/>
	<g>
		<polygon class="st2" points="269.6,38 269.6,19.7 274.9,19.7 274.9,26.5 280.7,26.5 280.7,19.7 285.9,19.7 285.9,38 280.7,38 
			280.7,29.8 274.9,29.8 274.9,38 269.6,38 		"/>
		<path class="st2" d="M261.9,35.1v-6.5c-2.2,0.3-5.5,0.7-5.5,3.9C256.3,36.4,260.6,35.7,261.9,35.1L261.9,35.1z M251.5,32.8
			c0-2.5,1.3-4.4,3.8-5.4c1.1-0.4,2.2-0.7,3.1-0.8c0.9-0.2,2.1-0.3,3.5-0.5v-0.6c0.1-2.7-1.4-3.2-3.3-3.2c-1.7,0-3.5,0.5-5,1.4
			l-0.4-3.3c2.2-0.8,4.4-1.2,6.6-1.2c1.4,0,2.7,0.1,3.6,0.5c2,0.6,3.1,2.2,3.3,4c0.1,0.4,0.1,1,0.1,1.9v11.4
			C262.2,38.9,251.5,40.1,251.5,32.8L251.5,32.8z"/>
		<path class="st2" d="M243.6,34.5c-0.5,0.7-1.2,1.1-2.2,1.1c-3.1,0-3.8-5-3.8-7.3c0-1.9,0.4-3.9,1.5-5.1c0.5-0.7,1.3-1,2.2-1
			c1.2,0,2.3,0.7,2.8,2.2c0.6,1.6,0.8,3.2,0.8,4.7C244.9,31.1,244.6,33.1,243.6,34.5L243.6,34.5z M250,24.7
			c-0.4-1.4-1.2-2.7-2.3-3.8c-1.8-1.7-8.2-3.1-11.3,1.5c0-4.9,2.1-7.3,6.2-8c4.1-0.6,6.4-1.1,6.4-1.1l-0.4-3.9c0,0-4.2,0.6-7.7,1.4
			c-3.8,0.9-7.4,3.6-8.3,9.1c-0.6,3.6-0.5,9.8,0.5,12.7c1.2,3.3,3.7,5.9,8.3,5.9c6.2,0,9.1-3.8,9.1-9.8
			C250.5,27.5,250.3,26.2,250,24.7L250,24.7z"/>
		<polygon class="st2" points="289,38 289,19.7 294.2,19.7 294.2,28.1 300.1,19.7 305.3,19.7 299.3,27.9 305.9,38 300.1,38 
			294.2,28.9 294.2,38 289,38 		"/>
		<path class="st2" d="M205.2,38.4c-1.7,0-3.4-0.1-5-0.7l0.4-3.2c1.2,0.7,2.4,1.1,3.8,1.1c2.7,0,4.1-1.2,4-2.9
			c0-0.8-0.2-1.5-0.8-1.9c-0.5-0.4-1.1-0.7-1.8-0.7c-0.7-0.1-1.3-0.1-1.8-0.1h-1.3v-2.8h0.4c2,0,5-0.1,5-2.6c0-2-2-2.4-3.1-2.4
			c-1.7,0-3,0.4-4.5,1.2l-0.3-3c1.8-0.7,3.9-1,5.9-1c4.3-0.1,6.9,1.8,6.8,4.7c0.1,2.4-2,3.8-3.4,4.2c0.9,0.2,1.7,0.4,2.3,0.9
			c1.3,0.9,1.8,2.3,1.8,3.6c0,2.4-1.3,4-3.1,4.9C208.8,38.2,206.8,38.4,205.2,38.4L205.2,38.4z"/>
		<path class="st2" d="M157.8,38.4c-6.1,0-9.4-3.7-9.4-9.7c0-6,3.6-9.5,9.5-9.5c1.6,0,2.8,0.2,4.3,0.7l-0.6,3.3
			c-1-0.5-1.8-0.8-2.9-0.8c-3.6,0-5.1,2.9-5.1,6.1c0,3.2,1.5,6.5,5.1,6.5c1.1,0,2-0.2,2.9-0.7l0.4,3.4
			C160.7,38.2,159.4,38.4,157.8,38.4L157.8,38.4z"/>
		<path class="st2" d="M216,38V19.7h5.2v5.8c1.1,0,1.8,0,2.1,0c2.4,0,4.2,0.4,5.3,1.2c1.3,1,2.2,2.8,2.1,4.7c-0.1,6-6.2,7.1-9.5,7.1
			C217.9,38.4,216,38,216,38L216,38z M221.3,35.1c0,0,4.8,1,4.8-3.5c0-0.8-0.1-1.5-0.5-1.9c-0.5-0.9-1.7-1.1-3-1.1H222h-0.2
			c-0.1,0-0.2,0-0.5,0.1V35.1L221.3,35.1z"/>
		<path class="st2" d="M170.1,27.3v-5.1c0,0,0.5-0.1,1.8-0.1c2.5,0,3,1.5,3,2.4c0,1.8-1.1,2.7-3.7,2.7H170.1L170.1,27.3z
			 M171.5,30.2c0.5,0,1,0,1.7,0.1c0.6,0,1.2,0.2,1.7,0.6c0.5,0.3,0.7,1,0.7,1.8c0,2-1.8,2.7-4.1,2.7c-0.6,0-1.3,0-1.3,0v-5.2H171.5
			L171.5,30.2z M176.7,28.3c2.2-0.7,3.3-2.1,3.3-4.2c0-0.9-0.2-1.7-0.6-2.3c-0.4-0.7-1.1-1.3-2-1.6c-1.7-0.7-4-0.9-6-0.9
			c-3.9,0-6.3,0.4-6.3,0.4V38c0,0,2.6,0.4,6.3,0.4c3.7,0,9.3-0.9,9.4-5.6c0,0,0-0.1,0-0.2C180.9,30.6,179.6,28.7,176.7,28.3
			L176.7,28.3z"/>
		<path class="st2" d="M192.3,27.6H191c-2.5,0-3.6-0.8-3.6-2.9c0-2.1,1.6-2.6,2.9-2.6c1.3,0,1.9,0.1,1.9,0.1V27.6L192.3,27.6z
			 M191.1,19.2c-3.9,0-8.7,0.6-8.7,5.6c0,2.6,1.3,4.2,3.8,4.9l-4.9,8.3h5.5l3.9-7.3h1.6V38h5.2V19.7C197.5,19.7,195,19.2,191.1,19.2
			L191.1,19.2z"/>
		<polygon class="st2" points="63.5,38 63.5,12.7 82.8,12.7 82.8,38 77.2,38 77.2,16.3 69.2,16.3 69.2,38 63.5,38 		"/>
		<path class="st2" d="M97.8,28.2c0-6.9-4.8-6.3-6.6-5.9v12C91.9,34.5,97.8,36.8,97.8,28.2L97.8,28.2z M85.9,45.5V20.2
			c4.6-0.9,17.1-3.5,17.1,7.7c0,2.9-0.8,5.5-2.3,7.3c-3,3.6-7.9,3.2-9.5,2.6v7.8H85.9L85.9,45.5z"/>
		<path class="st2" d="M114,35.5c1.5,0,2.6-1.2,3-2.9c0.4-1.7,0.5-2.8,0.5-4.1c0-1.8-0.2-3.1-0.7-4.4c-0.5-1.4-1.7-2.1-2.7-2.1
			c-1.5,0-2.6,1.1-3.1,2.6c-0.5,1.4-0.6,2.9-0.6,3.9C110.3,30.9,110.8,35.5,114,35.5L114,35.5z M113.6,38.4c-6.1,0-8.7-3.8-8.7-9.6
			c0-6,3.1-9.6,9.2-9.6c2.2,0,3.9,0.5,5.3,1.5c1.3,1,2.2,2.2,2.6,3.7c0.5,1.5,0.7,2.9,0.7,4.3C122.7,34.9,120,38.4,113.6,38.4
			L113.6,38.4z"/>
		<polygon class="st2" points="123.8,38 125.7,19.7 131.8,19.7 135.6,32.2 139.4,19.7 145.4,19.7 147.2,38 142.3,38 141.3,24.8 
			137.3,38 133.1,38 129,24.7 128,38 123.8,38 		"/>
	</g>
</g>
</svg>
